# xmcd
#
# Track frame offsets:
#	150
#	11590
#	24942
#	37093
#	52046
#	69638
#	80195
#	89704
#	101011
#	110139
#	127122
#	140339
#	152874
#	163566
#
# Disc length: 2383 seconds
#
# Revision: 1
# Processed by: cddbd v1.5.2PL0 Copyright (c) Steve Scherf et al.
# Submitted via: audiograbber 1.80.04
#
DISCID=c9094d0e
DTITLE=Stoakogler Trio - Mama, heut brauch ma kan Pyjama
DYEAR=1900
DGENRE=
TTITLE0=Spotzl, hock di a bisserl zu mir
TTITLE1=Wir g`hörn no lang net zum alten Eisen
TTITLE2=Stuhlecker Landler
TTITLE3=I hob zwoa linke Händ
TTITLE4=Der alte Lindenbaum
TTITLE5=Speckstub`n Polka
TTITLE6=Die 3 Bazi
TTITLE7=Mama heut brauch ma kan Pyjama
TTITLE8=Fanclub Polka
TTITLE9=A ganz Stades Stückl
TTITLE10=Wit singen miteinand
TTITLE11=am Brunnen vor dem Vaterhaus
TTITLE12=Stoakogler Marsch
TTITLE13=Im Sterierland
EXTD=
EXTT0=
EXTT1=
EXTT2=
EXTT3=
EXTT4=
EXTT5=
EXTT6=
EXTT7=
EXTT8=
EXTT9=
EXTT10=
EXTT11=
EXTT12=
EXTT13=
PLAYORDER=
